<svg width="250" height="256" viewBox="0 0 250 256" fill="none" xmlns="http://www.w3.org/2000/svg">
<path d="M226.562 32H23.4375C10.4932 32 0 42.745 0 56V200C0 213.255 10.4932 224 23.4375 224H226.562C239.507 224 250 213.255 250 200V56C250 42.745 239.507 32 226.562 32ZM226.562 56V76.4025C215.614 85.532 198.16 99.728 160.846 129.648C152.623 136.271 136.334 152.184 125 151.998C113.668 152.186 97.3735 136.269 89.1538 129.648C51.8457 99.7325 34.3872 85.5335 23.4375 76.4025V56H226.562ZM23.4375 200V107.199C34.626 116.324 50.4927 129.13 74.6768 148.522C85.3491 157.125 104.039 176.115 125 175.999C145.858 176.115 164.311 157.4 175.319 148.526C199.502 129.135 215.374 116.326 226.562 107.2V200H23.4375Z" fill="#543A66"/>
</svg>
