<svg width="250" height="285" viewBox="0 0 250 285" fill="none" xmlns="http://www.w3.org/2000/svg">
<g clip-path="url(#clip0)">
<path d="M125.056 78.4863C89.5648 78.4863 60.9376 107.042 60.9376 142.444C60.9376 177.847 89.5648 206.402 125.056 206.402C160.547 206.402 189.174 177.847 189.174 142.444C189.174 107.042 160.547 78.4863 125.056 78.4863ZM125.056 184.025C102.121 184.025 83.3706 165.378 83.3706 142.444C83.3706 119.511 102.065 100.863 125.056 100.863C148.047 100.863 166.741 119.511 166.741 142.444C166.741 165.378 147.991 184.025 125.056 184.025V184.025ZM206.752 75.8701C206.752 84.1641 200.056 90.7881 191.797 90.7881C183.482 90.7881 176.842 84.1084 176.842 75.8701C176.842 67.6318 183.538 60.9521 191.797 60.9521C200.056 60.9521 206.752 67.6318 206.752 75.8701ZM249.219 91.0107C248.27 71.0273 243.694 53.3262 229.018 38.7422C214.397 24.1582 196.652 19.5937 176.618 18.5918C155.971 17.4229 94.0849 17.4229 73.4376 18.5918C53.4599 19.5381 35.7144 24.1025 21.0381 38.6865C6.36171 53.2705 1.84162 70.9717 0.837158 90.9551C-0.334717 111.551 -0.334717 173.282 0.837158 193.878C1.78582 213.861 6.36171 231.562 21.0381 246.146C35.7144 260.73 53.4041 265.295 73.4376 266.297C94.0849 267.466 155.971 267.466 176.618 266.297C196.652 265.351 214.397 260.786 229.018 246.146C243.639 231.562 248.214 213.861 249.219 193.878C250.391 173.282 250.391 111.606 249.219 91.0107V91.0107ZM222.545 215.977C218.192 226.887 209.766 235.292 198.772 239.689C182.31 246.202 143.248 244.699 125.056 244.699C106.864 244.699 67.7456 246.146 51.3394 239.689C40.4019 235.348 31.9756 226.942 27.5671 215.977C21.0381 199.556 22.5447 160.591 22.5447 142.444C22.5447 124.298 21.0939 85.2773 27.5671 68.9121C31.9197 58.002 40.3461 49.5967 51.3394 45.1992C67.8014 38.6865 106.864 40.1895 125.056 40.1895C143.248 40.1895 182.366 38.7422 198.772 45.1992C209.71 49.541 218.136 57.9463 222.545 68.9121C229.074 85.333 227.567 124.298 227.567 142.444C227.567 160.591 229.074 199.611 222.545 215.977Z" fill="#543A66"/>
</g>
<defs>
<clipPath id="clip0">
<rect width="250" height="285" fill="white"/>
</clipPath>
</defs>
</svg>
