<svg width="250" height="288" viewBox="0 0 250 288" fill="none" xmlns="http://www.w3.org/2000/svg">
<path d="M212.556 54.6187C189.174 30.9937 158.036 18 124.944 18C56.6406 18 1.06027 74.025 1.06027 142.875C1.06027 164.869 6.75223 186.356 17.5781 205.312L0 270L65.6808 252.619C83.7612 262.575 104.129 267.806 124.888 267.806H124.944C193.192 267.806 250 211.781 250 142.931C250 109.575 235.938 78.2437 212.556 54.6187V54.6187ZM124.944 246.769C106.417 246.769 88.2812 241.762 72.4888 232.312L68.75 230.062L29.7991 240.356L40.1786 202.05L37.7232 198.113C27.3996 181.575 21.9866 162.506 21.9866 142.875C21.9866 85.6688 68.192 39.0938 125 39.0938C152.511 39.0938 178.348 49.8937 197.768 69.525C217.188 89.1562 229.129 115.2 229.074 142.931C229.074 200.194 181.696 246.769 124.944 246.769V246.769ZM181.417 169.031C178.348 167.456 163.114 159.919 160.268 158.906C157.422 157.838 155.357 157.331 153.292 160.481C151.228 163.631 145.313 170.606 143.471 172.744C141.685 174.825 139.844 175.106 136.775 173.531C118.583 164.363 106.641 157.163 94.6429 136.406C91.4621 130.894 97.8237 131.287 103.739 119.362C104.743 117.281 104.241 115.481 103.46 113.906C102.679 112.331 96.4844 96.975 93.9174 90.7313C91.4063 84.6563 88.8393 85.5 86.942 85.3875C85.1563 85.275 83.0915 85.275 81.0268 85.275C78.9621 85.275 75.6138 86.0625 72.7679 89.1562C69.9219 92.3062 61.942 99.8438 61.942 115.2C61.942 130.556 73.0469 145.406 74.5536 147.488C76.1161 149.569 96.3728 181.069 127.455 194.625C147.098 203.175 154.799 203.906 164.621 202.444C170.592 201.544 182.924 194.906 185.491 187.594C188.058 180.281 188.058 174.038 187.277 172.744C186.551 171.338 184.487 170.55 181.417 169.031Z" fill="#543A66"/>
</svg>
